<?xml version="1.0" standalone="no"?>
<!DOCTYPE svg PUBLIC "-//W3C//DTD SVG 20010904//EN"
 "http://www.w3.org/TR/2001/REC-SVG-20010904/DTD/svg10.dtd">
<svg version="1.0" xmlns="http://www.w3.org/2000/svg"
 width="717.000000pt" height="717.000000pt" viewBox="0 0 717.000000 717.000000"
 preserveAspectRatio="xMidYMid meet">
<metadata>
Created by potrace 1.11, written by Peter Selinger 2001-2013
</metadata>
<g transform="translate(0.000000,717.000000) scale(0.100000,-0.100000)"
fill="#000000" stroke="none">
<path d="M3408 7125 c-2 -1 -52 -5 -113 -9 -60 -4 -121 -9 -135 -10 -14 -2
-56 -7 -95 -10 -38 -4 -77 -9 -85 -11 -8 -2 -33 -7 -55 -10 -63 -9 -106 -16
-129 -21 -11 -2 -37 -7 -56 -10 -19 -3 -42 -7 -50 -10 -8 -3 -26 -8 -40 -10
-51 -9 -228 -55 -310 -81 -47 -14 -89 -28 -95 -29 -26 -6 -240 -85 -320 -118
-90 -38 -232 -107 -292 -142 -17 -10 -53 -32 -80 -48 -122 -74 -299 -228 -391
-341 -31 -38 -60 -72 -63 -75 -39 -33 -303 -460 -429 -695 -18 -33 -36 -64
-40 -70 -14 -18 -197 -388 -245 -495 -92 -204 -210 -525 -250 -680 -55 -209
-82 -343 -110 -530 -21 -145 -28 -539 -12 -685 9 -79 31 -228 42 -285 3 -14 7
-36 10 -49 19 -103 130 -519 184 -692 80 -256 160 -435 288 -641 162 -262 393
-483 708 -677 127 -79 376 -206 510 -261 44 -18 94 -39 110 -45 163 -68 671
-209 825 -229 14 -2 68 -11 120 -19 116 -20 160 -26 225 -33 28 -3 61 -7 75
-9 14 -3 61 -7 105 -10 44 -4 90 -8 103 -10 149 -24 913 -25 1112 -1 19 2 64
7 100 11 57 5 115 13 225 31 17 2 55 9 85 15 30 6 64 12 75 13 11 2 29 6 40 9
11 3 34 9 52 12 17 3 84 21 150 40 65 19 126 37 135 39 78 20 326 124 453 190
306 160 599 403 785 651 41 55 77 102 80 105 17 16 129 192 183 287 184 321
311 708 342 1043 4 36 8 76 11 90 18 116 25 721 11 920 -10 138 -18 222 -22
250 -2 14 -7 50 -10 80 -11 106 -43 329 -49 339 -2 3 -7 29 -10 56 -4 28 -9
59 -11 70 -3 11 -7 31 -9 45 -3 14 -7 36 -10 50 -3 14 -8 39 -12 55 -10 53
-54 239 -64 275 -5 19 -27 100 -49 180 -48 175 -99 330 -153 465 -43 109 -144
311 -183 370 -14 20 -25 38 -25 41 0 2 -16 28 -36 57 -274 392 -619 661 -1164
905 -167 75 -503 192 -623 217 -10 2 -27 7 -37 10 -10 3 -27 8 -37 10 -10 2
-63 13 -118 25 -55 12 -113 24 -130 26 -16 3 -52 9 -80 14 -46 8 -118 19 -173
25 -13 2 -55 6 -95 10 -40 4 -85 9 -102 11 -32 5 -542 13 -547 9z"/>
</g>
</svg>
